# AST/ASF file generated using VICON BodyLanguage
# -----------------------------------------------
:version 1.10
:name VICON
:units
  mass 1.0
  length 0.45
  angle deg
:documentation
   .ast/.asf automatically generated from VICON data using
   VICON BodyBuilder and BodyLanguage model FoxedUp or BRILLIANT.MOD
:root
   order TX TY TZ RX RY RZ
   axis XYZ
   position 0 0 0  
   orientation 0 0 0 
:bonedata
  begin
     id 1 
     name lhipjoint
     direction 0.650112 -0.723553 0.232005 
     length 2.45805 
     axis 0 0 0  XYZ
  end
  begin
     id 2 
     name lfemur
     direction 0.34202 -0.939693 0  
     length 7.00073  
     axis 0 0 20  XYZ
    dof rx ry rz
    limits (-160.0 20.0)
           (-70.0 70.0)
           (-60.0 70.0)
  end
  begin
     id 3 
     name ltibia
     direction 0.34202 -0.939693 0   
     length 7.8748   
     axis 0 0 20   XYZ
    dof rx
    limits (-10.0 170.0)
  end
  begin
     id 4 
     name lfoot
     direction 0.0542825 -0.14914 0.987325   
     length 1.75978   
     axis -90 7.62852e-016 20   XYZ
    dof rx rz
    limits (-45.0 90.0)
           (-70.0 20.0)
  end
  begin
     id 5 
     name ltoes
     direction 1.53509e-011 -4.21906e-011 1   
     length 0.893912   
     axis -90 7.62852e-016 20   XYZ
    dof rx
    limits (-90.0 20.0)
  end
  begin
     id 6 
     name rhipjoint
     direction -0.637897 -0.733345 0.235145   
     length 2.42522  
     axis 0 0 0  XYZ 
  end
  begin
     id 7 
     name rfemur
     direction -0.34202 -0.939693 0   
     length 7.02549   
     axis 0 0 -20   XYZ
    dof rx ry rz
    limits (-160.0 20.0)
           (-70.0 70.0)
           (-70.0 60.0)
  end
  begin
     id 8 
     name rtibia
     direction -0.34202 -0.939693 0   
     length 7.71512   
     axis 0 0 -20   XYZ
    dof rx
    limits (-10.0 170.0)
 end
 begin
     id 9 
     name rfoot
     direction -0.0822618 -0.226012 0.970645   
     length 1.90014  
     axis -90 -7.62852e-016 -20   XYZ
    dof rx rz
    limits (-45.0 90.0)
           (-20.0 70.0)
  end
  begin
     id 10 
     name rtoes
     direction -1.53542e-011 -4.21872e-011 1   
     length 0.957341   
     axis -90 -7.62852e-016 -20   XYZ
    dof rx
    limits (-90.0 20.0)
  end
  begin
     id 11 
     name lowerback
     direction -0.0022947 0.999774 -0.0211557   
     length 1.89909   
     axis 0 0 0   XYZ
    dof rx ry rz
    limits (-20.0 45.0)
           (-30.0 30.0)
           (-30.0 30.0)
  end
  begin
     id 12 
     name upperback
     direction 0.0107737 0.998635 0.0511027   
     length 1.8853   
     axis 0 0 0   XYZ
    dof rx ry rz
    limits (-20.0 45.0)
           (-30.0 30.0)
           (-30.0 30.0)
  end
  begin
     id 13 
     name thorax
     direction 0.011824 0.998136 0.0598754   
     length 1.88911   
     axis 0 0 0   XYZ
    dof rx ry rz
    limits (-20.0 45.0)
           (-30.0 30.0)
           (-30.0 30.0)
  end
  begin
     id 14 
     name lowerneck
     direction -0.0685355 0.990319 0.120714   
     length 1.91222   
     axis 0 0 0   XYZ
    dof rx ry rz
    limits (-20.0 45.0)
           (-30.0 30.0)
           (-30.0 30.0)
  end
  begin
     id 15 
     name upperneck
     direction 0.0886204 0.955665 -0.280805   
     length 1.92526   
     axis 0 0 0   XYZ
    dof rx ry rz
    limits (-20.0 45.0)
           (-30.0 30.0)
           (-30.0 30.0)
  end
  begin
     id 16
     name head
     direction 0.0233423 0.993502 -0.111393  
     length 1.96056  
     axis 0 0 0   XYZ
    dof rx ry rz
    limits (-20.0 45.0)
           (-30.0 30.0)
           (-30.0 30.0)
  end
  begin
     id 17 
     name lclavicle
     direction 0.941873 0.32922 0.0670041  
     length 3.31705  
     axis 0 0 0   XYZ
    dof ry rz
    limits (-20.0 10.0)
           (0.0 20.0)
  end
  begin
     id 18 
     name lhumerus
     direction 1 -4.4898e-011 3.38707e-028   
     length 5.29277   
     axis 180 -30 -90   XYZ
    dof rx ry rz
    limits (-60.0 90.0)
           (-90.0 90.0)
           (-90.0 90.0)
  end
  begin
     id 19
     name lradius
     direction 1 -4.48952e-011 1.63213e-028   
     length 2.85226   
     axis 180 -30 -90   XYZ
    dof rx
    limits (-10.0 170.0)
  end
  begin
     id 20
     name lwrist
     direction 1 -4.49001e-011 1.27856e-027   
     length 1.42613   
     axis -1.61767e-015 90 90   XYZ
    dof ry
    limits (-180.0 0.0)
 end
  begin
     id 21 
     name lhand
     direction 1 -4.48976e-011 2.55931e-027   
     length 0.602097   
     axis -1.63363e-015 90 90   XYZ
    dof rx rz
    limits (-90.0 90.0)
           (-45.0 45.0)
  end
  begin
     id 22 
     name lfingers
     direction 1 -4.48986e-011 5.11684e-027   
     length 0.485426   
     axis -3.26723e-015 90 90   XYZ
    dof rx
    limits (0.0 90.0)
  end
  begin
     id 23
     name lthumb
     direction 0.707107 -6.34915e-011 0.707107   
     length 0.696978   
     axis -90 45 -2.25915e-014   XYZ
    dof rx rz
    limits (-45.0 45.0)
           (-45.0 45.0)
  end
  begin
     id 24 
     name rclavicle
     direction -0.939974 0.327078 0.0973096   
     length 3.10337  
     axis 0 0 0   XYZ 
    dof ry rz
    limits (-10.0 20.0)
           (-20.0 0.0)
  end
  begin
     id 25 
     name rhumerus
     direction -1 -4.48975e-011 1.83745e-027  
     length 5.13304   
     axis 180 30 90   XYZ
    dof rx ry rz
    limits (-90.0 60.0)
           (-90.0 90.0)
           (-90.0 90.0)
  end
  begin
     id 26 
     name rradius
     direction -1 -4.48977e-011 7.1775e-029   
     length 2.74305   
     axis 180 30 90   XYZ
    dof rx
    limits (-10.0 170.0)
  end
  begin
     id 27 
     name rwrist
     direction -1 -4.48977e-011 1.27963e-027   
     length 1.37152   
     axis -1.61767e-015 -90 -90   XYZ
    dof ry
    limits (-180.0 0.0)
  end
  begin
     id 28
     name rhand
     direction -1 -4.4888e-011 2.56782e-027   
     length 0.767976   
     axis -1.63363e-015 -90 -90   XYZ
    dof rx rz
    limits (-90.0 90.0)
           (-45.0 45.0)
  end
  begin
     id 29
     name rfingers
     direction -1 -4.48947e-011 5.12384e-027   
     length 0.619162   
     axis -3.26723e-015 -90 -90   XYZ
    dof rx
    limits (0.0 90.0)
  end
  begin
     id 30
     name rthumb
     direction -0.707107 -6.34857e-011 0.707107   
     length 0.888997   
     axis -90 -45 2.25915e-014   XYZ
    dof rx rz
    limits (-45.0 45.0)
           (-45.0 45.0)
  end
:hierarchy
  begin
    root lhipjoint rhipjoint lowerback
    lhipjoint lfemur
    lfemur ltibia
    ltibia lfoot
    lfoot ltoes
    rhipjoint rfemur
    rfemur rtibia
    rtibia rfoot
    rfoot rtoes
    lowerback upperback
    upperback thorax
    thorax lowerneck lclavicle rclavicle
    lowerneck upperneck
    upperneck head
    lclavicle lhumerus
    lhumerus lradius
    lradius lwrist
    lwrist lhand lthumb
    lhand lfingers
    rclavicle rhumerus
    rhumerus rradius
    rradius rwrist
    rwrist rhand rthumb
    rhand rfingers
  end

#!OML:ASF F:\VICON\USERDATA\INSTALL\rory3\rory3.ASF
:FULLY-SPECIFIED
:DEGREES
1
root 0.112225 17.5115 -0.524026 5.12587 -3.06972 -0.532659
lowerback -3.26772 0.289363 0.340052
upperback -1.53978 0.371094 0.766699
thorax 0.250769 0.186242 0.607083
lowerneck -15.6988 -10.7802 -14.2015
upperneck 18.0077 -13.4763 9.35185
head 9.92776 -6.33434 3.61718
rclavicle 1.00278e-014 2.127e-014
rhumerus -32.3629 -7.36625 -83.9044
rradius 21.8885
rwrist 26.1103
rhand -9.33356 14.3438
rfingers 7.12502
rthumb 16.6253 -14.9641
lclavicle 1.00278e-014 2.127e-014
lhumerus -26.575 -6.13451 83.1177
lradius 24.078
lwrist -5.87829
lhand -11.2269 25.1351
lfingers 7.12502
lthumb 14.8019 54.5865
rfemur 1.35005 14.8803 18.7556
rtibia 1.43125e-014
rfoot -4.77451 -12.8207
rtoes -16.7114
lfemur -4.26944 -15.3577 -18.5152
ltibia 11.6563
lfoot -12.6758 13.2262
ltoes -15.829
2
root 0.112462 17.5113 -0.531393 5.22753 -3.00009 -0.596
lowerback -3.35773 0.262058 0.357959
upperback -1.54308 0.333057 0.828699
thorax 0.297702 0.167324 0.659729
lowerneck -15.6967 -10.8204 -14.2776
upperneck 17.998 -13.5461 9.48844
head 9.94958 -6.35768 3.66444
rclavicle 2.20216e-015 -5.36719e-015
rhumerus -32.1408 -7.99724 -83.3719
rradius 21.3665
rwrist 27.6493
rhand -10.1414 14.2326
rfingers 7.12502
rthumb 15.8474 -15.1389
lclavicle 2.20216e-015 -5.36719e-015
lhumerus -26.1682 -5.94498 83.1232
lradius 23.6535
lwrist -6.3777
lhand -12.0269 24.8451
lfingers 7.12502
lthumb 14.0311 54.3515
rfemur 1.22354 14.8148 18.8023
rtibia 3.97569e-015
rfoot -4.71395 -12.7485
rtoes -17.5871
lfemur -4.51943 -15.418 -18.4059
ltibia 11.8474
lfoot -12.6674 13.0374
ltoes -15.0654
3
root 0.113881 17.5115 -0.536353 5.27273 -2.93867 -0.627649
lowerback -3.37537 0.237053 0.382415
upperback -1.56572 0.29892 0.848442
thorax 0.284689 0.150223 0.665058
lowerneck -15.6287 -10.8332 -14.2932
upperneck 17.9896 -13.6033 9.62711
head 9.95391 -6.37356 3.70842
rclavicle -1.17904e-014 3.18055e-015
rhumerus -31.9873 -8.8888 -82.7606
rradius 20.7892
rwrist 29.3533
rhand -10.8956 14.3627
rfingers 7.12502
rthumb 15.1211 -15.0649
lclavicle -1.17904e-014 3.18055e-015
lhumerus -25.8102 -5.65684 83.0665
lradius 23.2139
lwrist -7.05116
lhand -12.4106 24.963
lfingers 7.12502
lthumb 13.6613 54.4946
rfemur 1.16073 14.7553 18.8192
rtibia -5.56597e-015
rfoot -4.80983 -12.7207
rtoes -17.3432
lfemur -4.60288 -15.4773 -18.3793
ltibia 11.8703
lfoot -12.7331 12.7883
ltoes -14.7551
4
root 0.116729 17.5132 -0.539143 5.2546 -2.86946 -0.627787
lowerback -3.35085 0.190652 0.371056
upperback -1.55972 0.237417 0.880068
thorax 0.277479 0.119616 0.701558
lowerneck -15.6174 -10.8259 -14.3269
upperneck 18.0427 -13.6169 9.73248
head 9.98355 -6.37174 3.74874
rclavicle -5.93714e-015 -9.14409e-015
rhumerus -31.812 -9.96066 -82.0216
rradius 20.1847
rwrist 31.3038
rhand -11.5314 14.7606
rfingers 7.12502
rthumb 14.5085 -14.7121
lclavicle -5.93714e-015 -9.14409e-015
lhumerus -25.4516 -5.17838 82.9893
lradius 22.8374
lwrist -7.88331
lhand -12.3476 25.2295
lfingers 7.12502
lthumb 13.722 54.7571
rfemur 1.17158 14.6859 18.8155
rtibia 3.18055e-015
rfoot -4.90946 -12.7361
rtoes -16.1843
lfemur -4.6692 -15.5482 -18.3891
ltibia 11.9657
lfoot -12.8541 12.739
ltoes -15.7318
5
root 0.120105 17.5141 -0.542707 5.26793 -2.73246 -0.6383
lowerback -3.35961 0.154374 0.377094
upperback -1.56169 0.188652 0.912404
thorax 0.280724 0.0953119 0.72961
lowerneck -15.5843 -10.8637 -14.3883
upperneck 18.0708 -13.6959 9.87054
head 10.0138 -6.39934 3.79408
rclavicle -9.13788e-015 -7.95139e-016
rhumerus -31.6328 -10.7715 -81.4233
rradius 19.7128
rwrist 32.7385
rhand -12.0272 14.7492
rfingers 7.12502
rthumb 14.0308 -14.7573
lclavicle -9.13788e-015 -7.95139e-016
lhumerus -25.1379 -4.76874 82.9965
lradius 22.5323
lwrist -8.68576
lhand -12.232 25.3891
lfingers 7.12502
lthumb 13.8334 54.9091
rfemur 1.17221 14.5496 18.8269
rtibia 7.15625e-015
rfoot -4.88954 -12.7776
rtoes -15.3333
lfemur -4.8117 -15.6801 -18.3251
ltibia 12.0811
lfoot -12.7037 13.0687
ltoes -16.5468
6
root 0.12365 17.5153 -0.546284 5.29587 -2.58823 -0.694333
lowerback -3.3685 0.117046 0.444403
upperback -1.59793 0.137107 0.922763
thorax 0.249205 0.0692892 0.700639
lowerneck -15.5055 -10.879 -14.3308
upperneck 18.1314 -13.7686 9.94549
head 10.0322 -6.42416 3.8024
rclavicle -6.68413e-015 1.23246e-014
rhumerus -31.5168 -11.5167 -80.9697
rradius 19.288
rwrist 33.9336
rhand -12.4874 14.5252
rfingers 7.12502
rthumb 13.5873 -15.0114
lclavicle -6.68413e-015 1.23246e-014
lhumerus -24.8482 -4.43032 82.972
lradius 22.1076
lwrist -9.26113
lhand -12.3547 25.2225
lfingers 7.12502
lthumb 13.7151 54.7505
rfemur 1.16194 14.4103 18.8842
rtibia -8.74653e-015
rfoot -4.79043 -12.7655
rtoes -15.5133
lfemur -4.95358 -15.8152 -18.2184
ltibia 12.1942
lfoot -12.5867 13.1489
ltoes -15.9633
7
root 0.126966 17.5153 -0.549448 5.31042 -2.41683 -0.82954
lowerback -3.38763 0.0543789 0.587461
upperback -1.61374 0.0489774 0.970858
thorax 0.244531 0.0246965 0.666628
lowerneck -15.5033 -10.8826 -14.3365
upperneck 18.2638 -13.8119 10.051
head 10.0937 -6.43346 3.83311
rclavicle 2.5578e-015 6.55989e-015
rhumerus -31.4156 -12.1436 -80.533
rradius 18.909
rwrist 35.0882
rhand -12.8666 14.3462
rfingers 7.12502
rthumb 13.2218 -15.2145
lclavicle 2.5578e-015 6.55989e-015
lhumerus -24.5348 -3.96104 82.9544
lradius 21.5841
lwrist -9.90862
lhand -12.4033 25.2412
lfingers 7.12502
lthumb 13.6683 54.7724
rfemur 1.15365 14.2518 19.0299
rtibia 1.27222e-014
rfoot -4.86214 -12.7379
rtoes -16.5899
lfemur -5.0573 -15.9761 -18.0421
ltibia 12.2923
lfoot -12.5959 13.0551
ltoes -15.6484
8
root 0.129944 17.5146 -0.5506 5.29502 -2.2935 -0.836318
lowerback -3.39633 0.00483336 0.558346
upperback -1.62613 -0.0162937 1.0013
thorax 0.237186 -0.00769845 0.711845
lowerneck -15.4629 -10.8838 -14.377
upperneck 18.3536 -13.8528 10.1892
head 10.1384 -6.44223 3.88278
rclavicle 1.61668e-015 1.68967e-014
rhumerus -31.3724 -13.1049 -79.8772
rradius 18.517
rwrist 36.7093
rhand -13.0434 14.3552
rfingers 7.12502
rthumb 13.0513 -15.2165
lclavicle 1.61668e-015 1.68967e-014
lhumerus -24.2542 -3.11596 82.9006
lradius 21.062
lwrist -10.8314
lhand -12.418 25.4062
lfingers 7.12502
lthumb 13.6542 54.9383
rfemur 1.17831 14.129 19.0361
rtibia -2.38542e-015
rfoot -4.909 -12.6813
rtoes -17.4928
lfemur -5.10711 -16.1004 -18.0421
ltibia 12.3726
lfoot -12.5859 13.0798
ltoes -15.9725
9
root 0.133922 17.516 -0.551704 5.31013 -2.21233 -0.801499
lowerback -3.39301 -0.0180544 0.51403
upperback -1.68442 -0.0446921 0.990185
thorax 0.175881 -0.0217109 0.724317
lowerneck -15.322 -10.8823 -14.3302
upperneck 18.3846 -13.9126 10.293
head 10.1365 -6.46147 3.90792
rclavicle -1.30219e-014 5.56597e-015
rhumerus -31.4434 -14.0022 -79.2671
rradius 18.1966
rwrist 38.0498
rhand -12.9619 14.3786
rfingers 7.12502
rthumb 13.13 -15.188
lclavicle -1.30219e-014 5.56597e-015
lhumerus -24.0836 -2.3087 82.8493
lradius 20.6439
lwrist -11.6293
lhand -12.4931 25.3834
lfingers 7.12502
lthumb 13.5818 54.9204
rfemur 1.17096 14.0434 18.9833
rtibia 4.77083e-015
rfoot -4.93019 -12.6848
rtoes -16.7437
lfemur -5.15043 -16.1896 -18.1142
ltibia 12.4064
lfoot -12.5571 13.1162
ltoes -16.2844
10
root 0.137135 17.5167 -0.552131 5.32814 -2.15012 -0.813495
lowerback -3.42267 -0.00414141 0.524407
upperback -1.70841 -0.0264683 0.979605
thorax 0.167699 -0.0126798 0.708302
lowerneck -15.2217 -10.9324 -14.3426
upperneck 18.4352 -14.0421 10.4593
head 10.1686 -6.50861 3.95002
rclavicle 7.06617e-016 -2.40529e-014
rhumerus -31.5003 -14.6368 -78.8018
rradius 18.0123
rwrist 38.8616
rhand -12.7537 14.3163
rfingers 7.12502
rthumb 13.3307 -15.2373
lclavicle 7.06617e-016 -2.40529e-014
lhumerus -23.8136 -1.58265 82.85
lradius 20.1144
lwrist -12.2763
lhand -12.6861 25.1882
lfingers 7.12502
lthumb 13.3957 54.7375
rfemur 1.17904 13.9816 18.9877
rtibia 3.97569e-015
rfoot -4.95097 -12.7019
rtoes -15.9209
lfemur -5.14173 -16.2564 -18.1485
ltibia 12.3902
lfoot -12.6007 13.2063
ltoes -16.5008
11
root 0.141343 17.5163 -0.553309 5.34544 -2.04604 -0.820427
lowerback -3.4386 -0.00697014 0.564728
upperback -1.73416 -0.0312939 0.972976
thorax 0.150227 -0.0153383 0.678744
lowerneck -15.2323 -10.9937 -14.4302
upperneck 18.614 -14.1771 10.6682
head 10.2779 -6.5539 4.01337
rclavicle 8.36138e-015 1.5704e-014
rhumerus -31.5995 -15.1795 -78.3695
rradius 17.9242
rwrist 39.4591
rhand -12.8237 14.2992
rfingers 7.12502
rthumb 13.2632 -15.2588
lclavicle 8.36138e-015 1.5704e-014
lhumerus -23.5979 -1.25683 83.0446
lradius 19.6694
lwrist -12.5721
lhand -13.0103 25.3182
lfingers 7.12502
lthumb 13.0833 54.8879
rfemur 1.20651 13.8776 18.9907
rtibia 3.97569e-015
rfoot -4.7841 -12.7053
rtoes -16.1663
lfemur -5.16217 -16.3616 -18.1517
ltibia 12.3669
lfoot -12.5254 13.3577
ltoes -17.2264
12
root 0.14496 17.517 -0.556214 5.36889 -1.94413 -0.858252
lowerback -3.43298 -0.0209589 0.604505
upperback -1.74563 -0.0510223 0.997559
thorax 0.135466 -0.0253402 0.680947
lowerneck -15.2952 -11.0697 -14.5977
upperneck 18.7324 -14.3173 10.948
head 10.3895 -6.59792 4.11089
rclavicle 8.66577e-016 -4.37326e-015
rhumerus -31.6514 -15.6571 -77.965
rradius 17.9369
rwrist 39.9598
rhand -12.8944 14.1978
rfingers 7.12502
rthumb 13.195 -15.3646
lclavicle 8.66577e-016 -4.37326e-015
lhumerus -23.3443 -0.603197 83.2404
lradius 19.2106
lwrist -13.262
lhand -13.3074 25.4789
lfingers 7.12502
lthumb 12.7968 55.0667
rfemur 1.19259 13.7788 19.0239
rtibia 7.95139e-016
rfoot -4.70634 -12.7015
rtoes -16.1997
lfemur -5.22712 -16.4579 -18.0894
ltibia 12.3833
lfoot -12.5548 13.2637
ltoes -16.2948
13
root 0.146202 17.5171 -0.559231 5.39339 -1.84672 -0.850945
lowerback -3.44992 -0.0469908 0.550319
upperback -1.75251 -0.0842445 1.0065
thorax 0.138221 -0.0415941 0.719329
lowerneck -15.3098 -11.1272 -14.6712
upperneck 18.7799 -14.4425 11.1783
head 10.4534 -6.63596 4.18119
rclavicle -3.88717e-015 -1.78906e-015
rhumerus -31.6821 -16.0746 -77.6572
rradius 17.9791
rwrist 40.3378
rhand -12.8964 13.9915
rfingers 7.12502
rthumb 13.1931 -15.5711
lclavicle -3.88717e-015 -1.78906e-015
lhumerus -23.1478 -0.0241048 83.4344
lradius 18.8863
lwrist -13.7799
lhand -13.5326 25.9228
lfingers 7.12502
lthumb 12.5798 55.524
rfemur 1.16603 13.6802 19.0112
rtibia -1.59028e-015
rfoot -4.71367 -12.6978
rtoes -15.7486
lfemur -5.31272 -16.5529 -18.063
ltibia 12.4326
lfoot -12.6552 13.1512
ltoes -15.4793
14
root 0.147936 17.5169 -0.561367 5.40829 -1.76559 -0.844464
lowerback -3.5104 -0.0853037 0.434219
upperback -1.72995 -0.132999 1.06267
thorax 0.195922 -0.0651114 0.840175
lowerneck -15.2807 -11.1514 -14.6948
upperneck 18.7514 -14.5163 11.3508
head 10.4657 -6.65522 4.23424
rclavicle -8.18434e-016 -1.68967e-014
rhumerus -31.6374 -16.2967 -77.3877
rradius 17.9468
rwrist 40.2345
rhand -12.8317 14.0778
rfingers 7.12502
rthumb 13.2554 -15.4807
lclavicle -8.18434e-016 -1.68967e-014
lhumerus -22.9264 0.796577 83.6242
lradius 18.4893
lwrist -14.3502
lhand -13.6404 26.1513
lfingers 7.12502
lthumb 12.4759 55.7589
rfemur 1.14823 13.5976 18.9928
rtibia 1.59028e-015
rfoot -4.71712 -12.7017
rtoes -15.0089
lfemur -5.3849 -16.6325 -18.0464
ltibia 12.4709
lfoot -12.5208 13.1926
ltoes -16.1805
